<svg xmlns="http://www.w3.org/2000/svg" viewBox="0 0 100 100" id="fertilizer">
  <path d="m19.767 86.556-1.793 1.793a4.428 4.428 0 0 0 0 6.254l.601.601a4.428 4.428 0 0 0 6.254 0l1.726-1.726c14.737 2.043 30.485 2.023 46.832-.059l1.785 1.785a4.408 4.408 0 0 0 3.127 1.293 4.41 4.41 0 0 0 3.127-1.293l.601-.601a4.428 4.428 0 0 0 0-6.254l-1.793-1.793c5.409-24.59 5.409-48.522 0-73.112l1.793-1.793a4.428 4.428 0 0 0 0-6.254l-.601-.601a4.428 4.428 0 0 0-6.254 0l-1.726 1.726C58.708 4.478 42.96 4.498 26.614 6.58l-1.785-1.785a4.43 4.43 0 0 0-6.254 0l-.601.601a4.428 4.428 0 0 0 0 6.254l1.793 1.793c-5.409 24.591-5.409 48.523 0 73.113zm2.704-74.651L20.096 9.53a1.424 1.424 0 0 1 0-2.012l.601-.6a1.424 1.424 0 0 1 2.012 0l2.306 2.306c.329.33.795.486 1.255.427 16.614-2.176 32.593-2.195 47.494-.054a1.5 1.5 0 0 0 1.274-.424l2.255-2.255a1.424 1.424 0 0 1 2.012 0l.601.601a1.425 1.425 0 0 1 0 2.012l-2.375 2.375a1.497 1.497 0 0 0-.403 1.389c5.549 24.699 5.549 48.713 0 73.412a1.497 1.497 0 0 0 .403 1.389l2.375 2.375a1.424 1.424 0 0 1 0 2.012l-.601.6a1.423 1.423 0 0 1-2.012 0l-2.306-2.306a1.501 1.501 0 0 0-1.256-.426c-16.615 2.176-32.593 2.195-47.494.054-.469-.068-.94.09-1.274.424l-2.255 2.254a1.426 1.426 0 0 1-2.012 0l-.601-.601a1.425 1.425 0 0 1 0-2.012l2.375-2.375c.364-.363.516-.888.403-1.389-5.549-24.699-5.549-48.713 0-73.412a1.499 1.499 0 0 0-.402-1.389z"></path>
  <path d="M39.258 39.498c2.273 1.184 4.714 1.506 6.703 1.506.844 0 1.605-.059 2.238-.134v19.438c-4.298.467-7.792 2.908-8.748 6.265a1.5 1.5 0 0 0 1.442 1.91h17.612a1.5 1.5 0 0 0 1.443-1.91c-.956-3.357-4.451-5.798-8.749-6.265V48.864c.932.178 2.116.337 3.447.337 1.688 0 3.591-.253 5.432-1.036 5.084-2.164 7.577-7.47 7.681-7.695a1.5 1.5 0 0 0-.87-2.045c-.233-.081-5.785-1.965-10.871.199-2.009.855-3.607 2.199-4.819 3.528v-3.064h-.007c0-.176-.024-.352-.086-.52-.085-.232-2.159-5.716-7.061-8.268s-10.583-1.104-10.822-1.041a1.502 1.502 0 0 0-1.026 1.971c.086.233 2.159 5.717 7.061 8.268zm17.935 1.887c2.454-1.044 5.157-.86 6.892-.559-.985 1.46-2.728 3.535-5.181 4.579-2.457 1.046-5.162.861-6.898.558.979-1.457 2.717-3.527 5.187-4.578zM43.497 65.484c1.366-1.378 3.663-2.263 6.203-2.263 2.54 0 4.837.885 6.203 2.263H43.497zm-.837-32.522c2.365 1.231 3.941 3.435 4.811 4.966-1.754.166-4.463.14-6.828-1.091-2.365-1.231-3.942-3.436-4.811-4.966 1.753-.167 4.462-.14 6.828 1.091z"></path>
</svg>
