<svg xmlns="http://www.w3.org/2000/svg" enable-background="new 0 0 512 512" version="1" viewBox="0 0 512 512" id="fruits">
  <path d="M94.1 363.6c-12.2-12.2-24.5-24.5-36.7-36.7-6.8-6.8-17.5 3.8-10.6 10.6C59 349.7 71.3 362 83.5 374.2 90.4 381 101 370.4 94.1 363.6L94.1 363.6zM121.1 336.5c-10.3-10.3-20.6-20.6-30.9-30.9-6.8-6.8-17.5 3.8-10.6 10.6 10.3 10.3 20.6 20.6 30.9 30.9C117.4 354 128 343.4 121.1 336.5L121.1 336.5zM201.7 360.1c-1.2 1.2-2.3 2.3-3.5 3.5-2.9 2.9-2.9 7.7 0 10.6 2.9 2.9 7.7 2.9 10.6 0 1.2-1.2 2.3-2.3 3.5-3.5 2.9-2.9 2.9-7.7 0-10.6S204.6 357.2 201.7 360.1L201.7 360.1zM189.8 317.9c-6.2 6.2-12.5 12.5-18.7 18.7-6.8 6.8 3.8 17.5 10.6 10.6 6.2-6.2 12.5-12.5 18.7-18.7C207.3 321.6 196.7 311 189.8 317.9L189.8 317.9z"></path>
  <path d="M184.3 449c-24.3 0-48.6 0-72.9 0-4.7 0-9.5-.1-12.7-4.3-2.9-3.7-2.5-7.9-2.5-12.3 0-14.5 0-29 0-43.5 0-6.8 0-13.7 0-20.5 0-3.5-.4-7.2.5-10.6 2.9-11.5 20.3-8.3 28.9-8.3 15.5 0 31 0 46.5 0 9.3 0 23.7-1.7 23.7 11.9 0 16.1 0 32.2 0 48.3 0 8.1 0 16.2 0 24.3C195.9 441.4 193.3 448.7 184.3 449c-9.6.3-9.7 15.3 0 15 12.4-.4 22.9-8.4 25.9-20.6 1-4.1.7-8.6.7-12.7 0-14.9 0-29.8 0-44.7 0-6.5 0-13 0-19.4 0-4.8.1-9.4-1.4-14.1-3.5-10.7-14.1-18.1-25.3-18.1-3.5 0-7.1 0-10.6 0-15.4 0-30.8 0-46.3 0-11.5 0-25.7-2.1-35.4 5.3-12.1 9.3-10.7 23.1-10.7 36.5 0 15.6 0 31.1 0 46.7 0 10.3-1.4 21.6 5.3 30.3 8.3 10.8 19.8 10.7 31.9 10.7 21.9 0 43.9 0 65.8 0C194 464 194 449 184.3 449zM371.3 160.3c5.6 0 10.2-6.8 13.6-10.6 4.5-4.9 8.5-10.2 12.3-15.7 7.5-10.9 13.2-22.9 17.5-35.4 1.1-3.3-.8-6.6-3.4-8.5-11.5-7.9-25.3-13.9-38.9-16.9-11-2.4-22.9-2.6-33.5 1.4-12.9 4.9-22.1 15.3-27.9 27.7-4 8.7 8.9 16.3 13 7.6 4.3-9.4 10.7-17.9 20.7-21.5 8.6-3.1 17.7-2.3 26.5-.2 11.8 2.8 22.5 7.7 32.6 14.7-1.1-2.8-2.3-5.6-3.4-8.5-3.4 9.8-7.9 19-13.3 27.7-2.8 4.5-6 8.9-9.4 13-1.7 2.1-3.6 4.1-5.4 6.1-1.1 1.2-3.2 4.1-4.6 4.8 1.3-.3 2.5-.7 3.8-1 0 0 0 0 0 0C361.6 145.3 361.6 160.3 371.3 160.3L371.3 160.3z"></path>
  <path d="M134.5 341.9c0-17.6 0-35.2 0-52.9 0-9.7-15-9.7-15 0 0 17.6 0 35.2 0 52.9C119.5 351.5 134.5 351.5 134.5 341.9L134.5 341.9zM172.7 341.9c0-17.6 0-35.2 0-52.9 0-9.7-15-9.7-15 0 0 17.6 0 35.2 0 52.9C157.7 351.5 172.7 351.5 172.7 341.9L172.7 341.9z"></path>
  <g>
    <path d="M234.1,195.3c-10.6-4.3-21.5-5-32.6-3c3.2,2.4,6.3,4.8,9.5,7.2c0-36-28.8-65.4-64.8-65.8c-36-0.4-64.8,30.5-64.8,65.8
					c3.2-2.4,6.3-4.8,9.5-7.2c-19.1-3.3-37.9,1.9-51.6,15.9c-13.8,14.2-18,34.8-13.1,53.7c1.1-2.8,2.3-5.6,3.4-8.5
					C15,261.1,6.2,275.5,4.9,291.8c-1.2,16.4,7.9,31.9,21.2,40.8c13.8,9.2,31.9,8.9,46.3,1.5c15.1-7.7,23.8-24.4,23.8-41
					c-1.8,2.4-3.7,4.8-5.5,7.2c11.4-2.5,21.6-8.4,29.5-17c-3.9-0.5-7.9-1-11.8-1.5c9.1,12.3,22.2,19.4,37.6,19.8
					c15.2,0.3,28.8-7.9,37.6-19.8c-3.9,0.5-7.9,1-11.8,1.5c5.3,5.8,11.6,10.4,18.7,13.5c3.7,1.6,8,1.1,10.3-2.7
					c1.9-3.2,1.1-8.6-2.7-10.3c-6.1-2.7-11.2-6.2-15.7-11.2c-3.5-3.9-9-2.2-11.8,1.5c-12.1,16.2-37.3,16.2-49.3,0
					c-2.7-3.7-8.2-5.4-11.8-1.5c-6.3,6.9-13.8,11.2-22.9,13.2c-3.2,0.7-5.5,4-5.5,7.2c0,24.8-26.6,39.5-47.6,26.5
					c-9.5-5.9-14.2-17-13.8-27.8c0.4-11.1,7.8-20.5,17.2-25.5c3-1.6,4.3-5.3,3.4-8.5c-3.5-13.5-0.9-27.5,8.4-38.1
					c9.4-10.8,23.9-15.5,37.8-13c4.7,0.8,9.5-2,9.5-7.2c0-27.8,21.9-50.5,49.8-50.8c27.9-0.3,49.8,23.5,49.8,50.8
					c0,5.2,4.8,8.1,9.5,7.2c8.5-1.5,16.7-0.2,24.7,3c3.8,1.5,8.2-1.7,9.2-5.2C240.5,200.2,237.9,196.8,234.1,195.3L234.1,195.3z"></path>
    <path d="M492.1,303.6c-0.2,46-22.2,90.1-59.4,117.4c-39,28.5-90,35.3-135.4,19.3c-49.1-17.4-85-62-94-112.9
					c-8-45.4,7.9-92.9,39.8-125.6c31.3-32.1,76.1-47.3,120.4-42.5c43.5,4.7,83.1,30.7,106.4,67.4
					C484.4,249.7,491.9,276.5,492.1,303.6c0.1,9.7,15.1,9.7,15,0c-0.4-45.7-20.1-89.6-54.3-120c-34.3-30.5-81.3-45-126.8-39
					c-45.1,5.9-85.3,30.9-111.4,68.1c-28.3,40.4-35.5,93.5-20.5,140.2c16,49.6,56.5,88.6,105.9,104.1c46.7,14.6,99.1,5.9,139-22.2
					c42.4-29.9,67.8-79.4,68-131.2C507.2,294,492.2,294,492.1,303.6z"></path>
  </g>
  <g>
    <path d="M344,149.1c-7.4-23.5-18.2-45.8-32.3-66c-6.8-9.7-14.4-19-22.6-27.6c-7.1-7.5-19.1-9.4-28.5-5.6
				c-9.9,4.1-15.5,12.8-16.7,23.2c-1.3,11.8,7.4,19.6,14.3,27.7c14.8,17.4,26.1,38,33.4,59.6c3.1,9.1,17.6,5.2,14.5-4
				c-6.4-18.8-15.3-36.5-26.7-52.7c-5.6-7.9-11.9-15.1-18.3-22.2c-5-5.5-1.5-14,4.1-17.3c7.5-4.4,13.6,2.1,18.1,7.1
				c7.1,7.9,13.5,16.3,19.4,25.2c11.6,17.5,20.5,36.6,26.8,56.6C332.4,162.3,346.9,158.4,344,149.1L344,149.1z"></path>
  </g>
</svg>
