<svg xmlns="http://www.w3.org/2000/svg" viewBox="0 0 32 32" id="gardening">
  <path d="M12.891 9.75a4.742 4.742 0 001.62.3 4.55 4.55 0 002.48-.74 4.473 4.473 0 002.03-4.08L19 4.94l-.26-.14a4.478 4.478 0 00-4.55.23 4.554 4.554 0 00-2.04 3.94 6.53 6.53 0 00-1.03 1.58A6.5 6.5 0 0010.1 8.97a4.554 4.554 0 00-2.04-3.94 4.478 4.478 0 00-4.55-.23l-.26.14-.03.29a4.531 4.531 0 004.52 4.82 4.742 4.742 0 001.62-.3 4.971 4.971 0 011.21 3.01H3.591l.47 4.93h1.1l1.09 10.02H16l1.09-10.02h1.1l.46-4.93h-6.97A4.971 4.971 0 0112.891 9.75zm1.89-3.81a3.406 3.406 0 013.18-.32A3.427 3.427 0 0116.4 8.41a3.465 3.465 0 01-2.6.46 7.725 7.725 0 012.15-1.19l-.34-1.03a9.416 9.416 0 00-2.26 1.24A3.413 3.413 0 0114.781 5.94zM8.451 8.87a3.408 3.408 0 01-4.16-3.25 3.409 3.409 0 013.18.32A3.5 3.5 0 018.9 7.89a9.175 9.175 0 00-2.27-1.24L6.3 7.68A7.874 7.874 0 018.451 8.87zm6.58 17.76H7.221l-.97-8.94H16zm2.44-12.79l-.14 1.5H4.921l-.14-1.5zM24.1 6.579a.75.75 0 10-.75-.75A.75.75 0 0024.1 6.579z"></path>
  <path d="M25.471,14.87c.02-.55.02-1.17.02-1.84a2.293,2.293,0,0,0,.9-1.81V5.7a2.29,2.29,0,1,0-4.58,0v5.52a2.293,2.293,0,0,0,.9,1.81c0,.67.01,1.29.02,1.84-2.25.33-3.31,1.59-3.31,3.96,0,2.81,1.86,9.76,4.69,9.76s4.68-7.25,4.68-9.76C28.791,16.46,27.731,15.2,25.471,14.87ZM22.891,5.7a1.21,1.21,0,0,1,2.42,0v5.52a1.21,1.21,0,1,1-2.42,0Zm1.22,21.82c-1.67,0-3.62-5.75-3.62-8.69,0-1.77.66-2.62,2.27-2.88.12,3,.48,3.84,1.34,3.84s1.23-.84,1.34-3.84c1.62.26,2.28,1.1,2.28,2.88C27.721,21.77,25.771,27.52,24.111,27.52Z"></path>
</svg>
