<svg xmlns="http://www.w3.org/2000/svg" enable-background="new 0 0 50 50" viewBox="0 0 50 50" id="spinach">
  <path d="M43.14336,17.43476c-1.7803,0-3.4424,0.791-4.5264,2.1132c-0.5299-0.1875-1.0985-0.2617-1.6665-0.2437
		c-0.3048-0.8263-0.84428-1.5767-1.5854-2.1869c0.2052-2.4604-1.2595-4.6065-3.4502-5.3936
		c0.083-1.5859-0.4444-3.1806-1.5078-4.4912c-1.3008-1.6035-3.2188-2.5225-5.2813-2.5225c-2.0224,0-3.93058,0.9073-5.2334,2.4874
		c-1.07218,1.3017-1.6103,2.9121-1.5361,4.5322c-1.0186,0.3633-1.91408,1.039-2.53808,1.9355
		c-0.70412,1.0088-1.02252,2.2149-0.91992,3.4512c-0.7475,0.6151-1.2903,1.3716-1.5939,2.2051
		c-0.6574-0.0584-1.324,0.0088-1.9403,0.2304c-3.5276-4.2411-10.4305-1.6797-10.3662,3.837
		c0.0166,1.4248,0.543,2.7695,1.4697,3.8076c-0.9216,1.7021-0.7029,3.8707,0.7715,5.3818
		c-0.4156,2.6615,1.4007,4.906,4.24512,4.9424c0.88578,1.165,2.21578,1.8447,3.66308,1.8437c2.8717,0,3.5748-2.0656,4.7744-3.0908
		l-0.0058-0.0078c0.0009-0.001,0.0029-0.0019,0.0039-0.0039l0.0068,0.0078c0.0019-0.0016-0.0373,0.0275,0.426-0.3663l7.7488,9.0314
		c0.3981,0.465,1.3433,0.4749,1.7611,0.021c0.0082-0.0091,0.02-0.0118,0.028-0.021l7.75272-9.0364
		c1.76648,1.618,1.53268,1.7497,2.17888,2.3293c2.0028,1.7548,5.0942,1.4443,6.6934-0.708
		c0.1024-0.0229,2.1368,0.122,3.46972-1.6465c0.68848-0.915,0.958-2.0888,0.76948-3.2949c1.4621-1.4986,1.6954-3.6614,0.7696-5.3799
		C50.87466,23.44816,48.15255,17.43476,43.14336,17.43476z M16.51936,18.40246c0.34082-0.2236,0.5107-0.6318,0.4306-1.0312
		c-0.3899-1.9519,0.8979-3.6313,2.6553-3.9053c0.2676-0.042,0.5078-0.1914,0.6631-0.4141c0.1562-0.2226,0.21482-0.499,0.1631-0.7656
		c-0.2598-1.3349,0.1064-2.7265,1.0049-3.8164c0.9209-1.1182,2.2666-1.7598,3.707-1.7598c1.4394,0,2.792,0.6495,3.7109,1.7823
		c0.8946,1.1035,1.252,2.4775,0.9795,3.7705c-0.05658,0.2685,0,0.5478,0.1553,0.7734c0.4977,0.7217,1.7347,0.2091,2.8213,1.7705
		c1.2599,1.8029-0.1409,2.8914,0.9326,3.5957c1.7277,1.1377,1.9667,3.0841,0.6626,4.4456c-0.5333,0.558-1.2662,0.7456-1.0923,1.5886
		c0.46392,2.2482-1.4364,4.2906-3.9123,3.8671c-0.9731-0.1647-2.0833-0.3231-3.16778-0.3231h-0.10152v-3.1231l4.3906-4.3916
		c0.3906-0.3906,0.3906-1.0234,0-1.4141c-0.3906-0.3906-1.0234-0.3906-1.41408,0l-2.97652,2.9773v-3.5183l2.1133-2.1133
		c0.3906-0.3906,0.3906-1.0234,0-1.414c-0.3907-0.3906-1.0235-0.3906-1.4141,0l-0.6992,0.6992v-0.792c0-0.5527-0.4473-1-1-1
		c-0.5528,0-1,0.4473-1,1v2.4546l-1.3106-1.3101c-0.3906-0.3906-1.0234-0.3906-1.414,0c-0.3907,0.3907-0.3907,1.0235,0,1.4141
		l2.7246,2.7238v1.8563l-2.9776-2.9776c-0.3906-0.3906-1.0234-0.3906-1.414,0c-0.3906,0.3907-0.3906,1.0235,0,1.4141l4.3916,4.3916
		v3.1231h-0.8584c-1.675,0-2.7937,0.5374-3.8496,0.321c-0.0547-0.012-0.1062-0.0337-0.16-0.0485
		c-0.1378-0.0361-0.2749-0.0741-0.4049-0.1279c-0.8014-0.3395-1.4177-0.9772-1.7363-1.745
		c-0.0011-0.0024-0.0014-0.0052-0.0025-0.0078c-0.6391-1.551,0.3475-2.3536-0.6036-2.9758
		C14.57018,22.12676,14.50466,19.73126,16.51936,18.40246z M27.93036,30.10466c0.3873,2.5978,2.62682,3.1991,4.18882,4.4983
		l-5.98752,6.979v-11.6013h0.10152C26.78706,29.98066,27.36426,30.03236,27.93036,30.10466z M13.22246,36.27166
		c-1.3412,1.7029-3.4524,1.2896-4.36128-0.2862c-0.62042-1.0755-2.12652,0.1852-3.253-1.3115
		c-0.43452-0.5771-0.54492-1.3486-0.30862-2.1728c0.1124-0.3897-0.02238-0.8077-0.3408-1.0596
		c-1.2729-1.0079-1.3355-2.6785-0.43158-3.7305c1.13958-1.3295-1.49762-1.489-1.52932-4.3457
		c-0.0462-3.9296,5.1141-5.4471,7.1865-2.0342c0.1377,0.2286,0.3623,0.3916,0.6211,0.4541
		c0.26072,0.0625,0.5332,0.0186,0.7598-0.122c0.4384-0.2725,0.956-0.3946,1.4736-0.3741c0.1115,1.3383,0.843,2.5667,1.8574,3.3975
		c-0.2519,3.0232,2.085,5.6072,5.0244,5.6777c-0.2773,0.6172-0.8554,1.0147-1.7802,1.6065
		c-0.4871,0.3111-1.0362,0.6677-1.5697,1.1152l-4.4092-5.1389c-0.0012-0.0015-0.0025-0.0029-0.0037-0.0044l-0.6402-0.7461
		l0.1872-2.4485c0.042-0.5507-0.3701-1.0312-0.9209-1.0732c-0.5615-0.041-1.0312,0.3711-1.0732,0.9209l-0.0348,0.4543l-0.1879-0.219
		c-0.3594-0.4189-0.9912-0.4668-1.4101-0.1074c-0.419,0.3594-0.46678,0.9912-0.1075,1.4102l1.0993,1.2812l-1.1784-0.0898
		c-0.5615-0.0469-1.03118,0.3701-1.07318,0.9209c-0.042,0.5508,0.37008,1.0312,0.92088,1.0732l3.17212,0.242l4.13948,4.8244
		C14.64766,34.78026,14.31646,34.87266,13.22246,36.27166z M17.87356,34.60466c1.5788-1.318,3.7917-1.921,4.1843-4.5221
		c0.9949-0.1543,1.3871-0.0839,2.0738-0.1019v11.9179L17.87356,34.60466z M45.59455,26.28336
		c-0.209,0.1699-0.3409,0.417-0.3653,0.6855c-0.0244,0.2676,0.0606,0.5352,0.2354,0.7393c0.4473,0.5254,0.665,1.2236,0.5976,1.915
		c-0.0488,0.4971-0.2666,1.2159-1.0273,1.8184c-0.3184,0.2519-0.4531,0.6699-0.34078,1.0596
		c0.51528,1.8026-0.67262,3.2343-2.57722,2.9922c-0.417-0.0489-0.8105,0.1542-1.00678,0.5185
		c-0.84092,1.5611-3.063,1.8812-4.24812,0.3848c-0.1704-0.2267-1.0251-1.1587-1.9246-2.0071l4.1423-4.8281
		c1.8208-0.3366,4.2135,0.2663,4.0929-1.3152c-0.042-0.5508-0.5068-0.9668-1.0732-0.9209l-1.1784,0.0898l1.0992-1.2812
		c0.3594-0.419,0.3116-1.0508-0.1074-1.4102c-0.4179-0.3594-1.0498-0.3115-1.4101,0.1074l-0.187,0.2181l-0.0347-0.4534
		c-0.042-0.5498-0.5283-0.96-1.0733-0.9209c-0.5507,0.042-0.9628,0.5225-0.9208,1.0732l0.1871,2.4477l-5.0526,5.8892
		c-2.2428-1.6311-2.9595-1.8587-3.3484-2.707c1.5133,0.0264,3.0969-0.6841,4.1347-1.958c1.4338-1.7592,1.1468-3.632,1.1583-3.7334
		c0.4956-0.4061,0.942-0.9204,1.2752-1.5212c0.3285-0.5881,0.5357-1.297,0.5851-1.8743c1.1046,0.0554,1.2483,0.6741,1.9746,0.4912
		c0.2627-0.0674,0.4873-0.2383,0.6221-0.4736c1.1235-1.965,3.9412-2.5577,5.8193-0.9434
		C47.45126,21.91146,47.45425,24.77436,45.59455,26.28336z"></path>
</svg>
