<?xml version="1.0" encoding="UTF-8"?>
<svg id="Layer_1" data-name="Layer 1" xmlns="http://www.w3.org/2000/svg" viewBox="0 0 70.98 22.68">
  <defs>
    <style>
      .cls-1 {
        fill: #fff;
        stroke-width: 0px;
      }
    </style>
  </defs>
  <path class="cls-1" d="M20.96,19.79L13.29,0c-.51.04-1.06.06-1.67.06s-1.16-.02-1.67-.06L2.92,18.11c-.51,1.31-1,2.24-1.48,2.77-.48.54-.96.85-1.44.94v.63c.32-.04.7-.07,1.16-.08.45-.01.88-.02,1.28-.02.74,0,1.42,0,2.05.02.62.01,1.33.04,2.11.08v-.63c-.63-.02-1.18-.12-1.65-.29-.47-.17-.8-.48-1.02-.92-.21-.44-.26-1.08-.14-1.92.12-.83.44-1.94.97-3.31l.55-1.43h6.39l1.88,5.2c.42,1.08.49,1.78.21,2.11-.29.33-.97.51-2.05.55v.63c.57-.04,1.33-.07,2.28-.08.95-.01,1.97-.02,3.04-.02s2.09,0,3.11.02,1.9.04,2.66.08v-.63c-.27-.02-.58-.18-.92-.49s-.66-.82-.95-1.54ZM5.55,13.32l3.05-7.94,2.87,7.94h-5.92Z"/>
  <path class="cls-1" d="M36.63,6.04c-.42-.33-1.01-.49-1.78-.49-.61,0-1.18.08-1.7.25-.52.17-.98.43-1.38.78-.4.35-.74.8-1.01,1.35v-2.28c-.78.15-1.63.26-2.55.33-.92.07-1.91.11-2.97.11-.63,0-1.29-.03-1.97-.1v.67c.68,0,1.14.23,1.4.68.25.46.38,1.16.38,2.11v10.05c0,.89-.13,1.49-.4,1.81s-.72.48-1.38.48v.67c.49-.02,1.22-.05,2.19-.08.97-.03,1.93-.05,2.89-.05,1.02,0,2,.02,2.97.05.96.03,1.69.06,2.17.08v-.67c-.97,0-1.67-.18-2.09-.54-.42-.36-.63-1.05-.63-2.06v-9.51c0-.32.05-.62.14-.92.1-.3.23-.57.4-.81.17-.24.37-.46.6-.65.23-.19.48-.34.73-.44.3-.15.63-.22,1.02-.22-.47.32-.85.71-1.16,1.17-.31.46-.46,1.06-.46,1.78,0,.68.24,1.23.71,1.65.48.42,1.18.63,2.11.63.87,0,1.57-.28,2.11-.84.54-.56.81-1.32.81-2.27,0-.49-.08-.98-.25-1.47-.17-.5-.46-.91-.89-1.24Z"/>
  <path class="cls-1" d="M51.95,6.12c-.25,0-.59,0-1-.02-.41-.01-.83-.03-1.25-.05-.42-.02-.78-.04-1.08-.06v.67c.63.04,1.16.3,1.58.78.42.48.67,1.18.75,2.11.07.93-.13,2.11-.62,3.55l-1.47,4.37-3.45-9.61c-.08-.42-.06-.71.08-.87.14-.16.36-.25.67-.29.31-.03.65-.05,1.03-.05v-.67c-.63.04-1.32.08-2.05.13-.73.04-1.42.06-2.08.06-1.1,0-2.1-.02-3.01-.05s-1.79-.08-2.63-.14v.67c.23,0,.52.1.86.29s.67.69.98,1.49l5.52,14.02c.51-.04,1.02-.06,1.54-.06s1.03.02,1.54.06l4.28-12.72c.36-1.04.72-1.77,1.09-2.2.37-.43.76-.72,1.16-.87v-.67c-.23.04-.6.07-1.11.1-.51.02-.95.03-1.33.03Z"/>
  <path class="cls-1" d="M70.66,20.96c-.15.11-.3.21-.46.32-.16.11-.32.16-.49.16-.19,0-.32-.1-.4-.29-.07-.19-.11-.55-.11-1.08v-8.5c0-1.1-.06-2-.19-2.7-.13-.7-.41-1.28-.86-1.74-.63-.66-1.4-1.08-2.28-1.28-.89-.2-1.85-.3-2.89-.3-.97,0-1.9.08-2.79.24-.89.16-1.65.42-2.28.78-.66.38-1.15.8-1.47,1.25-.33.46-.49,1.01-.49,1.67,0,.78.23,1.44.7,1.97s1.12.79,1.97.79,1.5-.24,2.09-.73.89-1.15.89-2c0-.59-.17-1.14-.51-1.63-.34-.5-.88-.88-1.62-1.16.23-.17.5-.3.81-.4.31-.09.63-.14.97-.14.63,0,1.11.15,1.43.44s.53.65.65,1.05c.12.4.17.77.17,1.11v2.82c0,.49-.2.88-.6,1.19s-.92.57-1.57.79c-.65.22-1.33.45-2.05.68-.72.23-1.4.52-2.05.87-.65.35-1.17.8-1.57,1.36-.4.56-.6,1.28-.6,2.17,0,.68.14,1.32.43,1.93.29.61.75,1.11,1.38,1.49.63.38,1.45.57,2.44.57,1.08,0,1.95-.23,2.62-.68.67-.45,1.22-1.03,1.67-1.73.02.42.13.82.33,1.19.2.37.55.67,1.05.89.5.22,1.2.33,2.11.33.76,0,1.49-.09,2.17-.29.69-.19,1.26-.49,1.73-.89l-.32-.54ZM63.49,19.6c-.19.21-.38.35-.55.43s-.39.11-.62.11c-.47,0-.85-.16-1.16-.49s-.46-.89-.46-1.7c0-.55.07-1.03.21-1.44.14-.41.32-.78.54-1.09.22-.32.46-.61.71-.89.25-.27.5-.54.75-.81s.44-.53.59-.81v6.69Z"/>
</svg>